<svg width="119" height="77" viewBox="0 0 119 77" fill="none" xmlns="http://www.w3.org/2000/svg">
<path d="M27.3593 32.1768C32.7084 42.1897 48.7808 63.0053 51.1337 74.7164C51.7881 77.9731 26.7215 76.6739 12.3938 57.8449C0.765067 42.5628 -0.797306 10.798 0.287441 0C72.925 9.64082 65.6612 74.7164 60.8187 65.0755C57.0394 57.5514 37.5904 40.2402 27.6499 31.9392C27.4837 31.8004 27.2572 31.9858 27.3593 32.1768Z" fill="#0FA44D"/>
<path d="M98.0927 38.9609C93.9352 47.2206 81.8711 64.0732 80.0939 73.5851C79.596 76.2496 98.6684 75.1867 109.57 59.7812C118.418 47.2776 119.607 21.2882 118.781 12.4535C63.5136 20.3414 69.0404 73.5851 72.7249 65.6971C75.5791 59.5868 90.1791 45.5875 97.7921 38.7383C97.9537 38.5929 98.1904 38.7667 98.0927 38.9609Z" fill="#0FA44D"/>
</svg>
