<svg width="86" height="55" viewBox="0 0 86 55" fill="none" xmlns="http://www.w3.org/2000/svg">
<path d="M19.8967 23.4846C23.8811 30.8055 35.2712 45.6222 36.9538 53.9967C37.4267 56.3503 19.3114 55.4114 8.9569 41.8039C0.552906 30.7597 -0.576204 7.80358 0.207731 0C52.7021 6.96732 47.4526 53.9967 43.953 47.0294C41.2476 41.6432 27.4309 29.317 20.1879 23.254C20.0218 23.115 19.7932 23.2944 19.8967 23.4846Z" fill="#0FA44D"/>
<path d="M70.7697 28.3941C67.659 34.4437 59.1506 46.395 57.883 53.1791C57.5232 55.1048 71.3066 54.3366 79.185 43.2032C85.5793 34.167 86.4384 15.3847 85.8419 9C45.9006 14.7005 49.8947 53.1791 52.5575 47.4786C54.5958 43.1148 64.9236 33.1836 70.4764 28.1732C70.6378 28.0275 70.8691 28.2007 70.7697 28.3941Z" fill="#0FA44D"/>
</svg>
