<svg width="77" height="77" viewBox="0 0 77 77" fill="none" xmlns="http://www.w3.org/2000/svg">
<path fill-rule="evenodd" clip-rule="evenodd" d="M33.3213 26.8117C32.578 26.3656 31.6522 26.354 30.8978 26.7811C30.1434 27.2082 29.6771 28.0081 29.6771 28.875V48.125C29.6771 48.9919 30.1434 49.7918 30.8978 50.2189C31.6522 50.646 32.578 50.6344 33.3213 50.1883L49.363 40.5633C50.0878 40.1285 50.5313 39.3452 50.5313 38.5C50.5313 37.6548 50.0878 36.8715 49.363 36.4367L33.3213 26.8117ZM43.4481 38.5L34.4896 43.8751V33.1249L43.4481 38.5Z" fill="white"/>
<path fill-rule="evenodd" clip-rule="evenodd" d="M54.6401 14.8908C43.8965 14.0502 33.1037 14.0502 22.3601 14.8908L15.1712 15.4532C10.7996 15.7952 7.22334 19.0716 6.50071 23.3965C4.82992 33.3962 4.82992 43.6038 6.50071 53.6034C7.22334 57.9284 10.7996 61.2048 15.1712 61.5468L22.3601 62.1092C33.1037 62.9497 43.8965 62.9497 54.6401 62.1092L61.829 61.5468C66.2006 61.2048 69.7769 57.9284 70.4995 53.6034C72.1703 43.6038 72.1703 33.3962 70.4995 23.3965C69.7769 19.0716 66.2006 15.7952 61.829 15.4532L54.6401 14.8908ZM22.7355 19.6886C33.2292 18.8676 43.771 18.8676 54.2647 19.6886L61.4536 20.251C63.6212 20.4206 65.3945 22.0452 65.7528 24.1896C67.3358 33.6642 67.3358 43.3358 65.7528 52.8103C65.3945 54.9548 63.6212 56.5794 61.4536 56.7489L54.2647 57.3114C43.771 58.1324 33.2292 58.1324 22.7355 57.3114L15.5466 56.7489C13.379 56.5794 11.6057 54.9548 11.2474 52.8103C9.66436 43.3358 9.66436 33.6642 11.2474 24.1896C11.6057 22.0452 13.379 20.4206 15.5466 20.251L22.7355 19.6886Z" fill="white"/>
</svg>
