<svg width="72" height="72" viewBox="0 0 72 72" fill="none" xmlns="http://www.w3.org/2000/svg">
<path d="M48 21C48 19.3432 49.3431 18 51 18C52.6569 18 54 19.3432 54 21C54 22.6569 52.6569 24 51 24C49.3431 24 48 22.6569 48 21Z" fill="white"/>
<path fill-rule="evenodd" clip-rule="evenodd" d="M36 21.75C28.1299 21.75 21.75 28.13 21.75 36C21.75 43.8701 28.1299 50.25 36 50.25C43.8701 50.25 50.25 43.8701 50.25 36C50.25 28.13 43.8701 21.75 36 21.75ZM26.25 36C26.25 30.6152 30.6152 26.25 36 26.25C41.3848 26.25 45.75 30.6152 45.75 36C45.75 41.3848 41.3848 45.75 36 45.75C30.6152 45.75 26.25 41.3848 26.25 36Z" fill="white"/>
<path fill-rule="evenodd" clip-rule="evenodd" d="M51.7748 8.49906C41.375 7.33674 30.625 7.33674 20.2253 8.49906C14.1891 9.17369 9.31614 13.9287 8.60648 19.9963C7.36286 30.6292 7.36286 41.3708 8.60648 52.0037C9.31614 58.0713 14.1891 62.8263 20.2253 63.501C30.625 64.6633 41.375 64.6633 51.7748 63.501C57.8109 62.8263 62.6839 58.0713 63.3936 52.0037C64.6372 41.3708 64.6372 30.6292 63.3936 19.9963C62.6839 13.9287 57.8109 9.17369 51.7748 8.49906ZM20.7251 12.9712C30.7927 11.846 41.2074 11.846 51.2749 12.9712C55.2653 13.4172 58.4617 16.566 58.9241 20.5191C60.1271 30.8046 60.1271 41.1954 58.9241 51.481C58.4617 55.434 55.2653 58.5828 51.2749 59.0288C41.2074 60.154 30.7927 60.154 20.7251 59.0288C16.7348 58.5828 13.5384 55.434 13.076 51.481C11.873 41.1954 11.873 30.8046 13.076 20.5191C13.5384 16.566 16.7348 13.4172 20.7251 12.9712Z" fill="white"/>
</svg>
