<svg width="72" height="72" viewBox="0 0 72 72" fill="none" xmlns="http://www.w3.org/2000/svg">
<path fill-rule="evenodd" clip-rule="evenodd" d="M31.4631 11.3631C34.4168 8.40937 38.4228 6.75 42.6 6.75H50.7C51.9426 6.75 52.95 7.75736 52.95 9V19.8C52.95 21.0426 51.9426 22.05 50.7 22.05H42.6C42.4807 22.05 42.3662 22.0974 42.2818 22.1818C42.1974 22.2662 42.15 22.3807 42.15 22.5V28.35H50.7C51.3929 28.35 52.0471 28.6692 52.4735 29.2153C52.8999 29.7614 53.0509 30.4735 52.8828 31.1457L50.1828 41.9457C49.9324 42.9473 49.0325 43.65 48 43.65H42.15V63C42.15 64.2426 41.1426 65.25 39.9 65.25H29.1C27.8574 65.25 26.85 64.2426 26.85 63V43.65H21C19.7574 43.65 18.75 42.6426 18.75 41.4V30.6C18.75 29.3574 19.7574 28.35 21 28.35H26.85V22.5C26.85 18.3228 28.5094 14.3168 31.4631 11.3631ZM42.6 11.25C39.6163 11.25 36.7548 12.4353 34.645 14.545C32.5353 16.6548 31.35 19.5163 31.35 22.5V30.6C31.35 31.8426 30.3426 32.85 29.1 32.85H23.25V39.15H29.1C30.3426 39.15 31.35 40.1574 31.35 41.4V60.75H37.65V41.4C37.65 40.1574 38.6574 39.15 39.9 39.15H46.2433L47.8183 32.85H39.9C38.6574 32.85 37.65 31.8426 37.65 30.6V22.5C37.65 21.1872 38.1715 19.9281 39.0998 18.9998C40.0281 18.0715 41.2872 17.55 42.6 17.55H48.45V11.25H42.6Z" fill="white"/>
</svg>
