<svg width="72" height="72" viewBox="0 0 72 72" fill="none" xmlns="http://www.w3.org/2000/svg">
<path fill-rule="evenodd" clip-rule="evenodd" d="M31.5213 6.75501C31.5713 6.75167 31.6213 6.75 31.6713 6.75H39.3086C40.5513 6.75 41.5586 7.75736 41.5586 9V20.1415H49.7707C51.0133 20.1415 52.0207 21.1488 52.0207 22.3915V30.238C52.0207 31.4807 51.0133 32.488 49.7707 32.488H41.5586V46.5327C41.5586 46.6447 41.5503 46.7566 41.5336 46.8674C41.4806 47.2196 41.5092 47.5792 41.6171 47.9186C41.725 48.2581 41.9094 48.5682 42.1561 48.8251C42.4028 49.082 42.7051 49.2789 43.0398 49.4006C43.3746 49.5223 43.7328 49.5655 44.0868 49.527C44.1427 49.5209 44.1987 49.5169 44.2548 49.515C45.4413 49.4751 46.611 49.2224 47.7081 48.7689C48.2864 48.5299 48.9382 48.5425 49.5069 48.8038C50.0756 49.065 50.5097 49.5513 50.7051 50.1459L53.1375 57.5478C53.3554 58.2107 53.2533 58.9372 52.8612 59.5145C52.3485 60.2694 51.5665 60.8381 50.8712 61.2496C50.1245 61.6914 49.2417 62.0882 48.302 62.421C46.4376 63.0814 44.1565 63.5577 41.9425 63.5604C35.6536 63.6571 31.0976 61.3835 28.1369 58.086C25.231 54.8498 23.981 50.7617 23.981 47.3435V32.488H21C19.7574 32.488 18.75 31.4807 18.75 30.238V23.49C18.75 22.5544 19.329 21.7164 20.2041 21.3855C22.6959 20.4431 24.8598 18.7961 26.432 16.6454C27.9976 14.5035 28.9091 11.9541 29.0565 9.3055C29.0773 8.66726 29.3287 8.05689 29.7658 7.58855C30.2238 7.09778 30.8515 6.79976 31.5213 6.75501ZM33.3756 11.25C32.9396 14.1531 31.8074 16.9171 30.0648 19.301C28.2896 21.7295 25.9462 23.6742 23.25 24.9712V27.988H26.231C27.4737 27.988 28.481 28.9954 28.481 30.238V47.3435C28.481 49.7579 29.3888 52.7448 31.4852 55.0796C33.5239 57.3501 36.8086 59.1424 41.8879 59.0607L41.9242 59.0601C43.5492 59.0601 45.3278 58.7006 46.7996 58.1793C47.427 57.957 47.9626 57.7181 48.3815 57.4892L47.1233 53.6605C46.2583 53.8576 45.3752 53.9748 44.4854 54.0096C43.4756 54.1062 42.4565 53.9767 41.5024 53.6299C40.5204 53.2729 39.6335 52.6953 38.9099 51.9415C38.1862 51.1877 37.6453 50.2779 37.3287 49.2822C37.0308 48.3452 36.939 47.3557 37.0586 46.3813V30.238C37.0586 28.9954 38.066 27.988 39.3086 27.988H47.5207V24.6415H39.3086C38.066 24.6415 37.0586 23.6341 37.0586 22.3915V11.25H33.3756Z" fill="white"/>
</svg>
