<svg width="18" height="18" viewBox="0 0 18 18" fill="none" xmlns="http://www.w3.org/2000/svg">
<path fill-rule="evenodd" clip-rule="evenodd" d="M13.5 0H4.5C2.01472 0 0 2.01472 0 4.5V13.5C0 15.9853 2.01472 18 4.5 18H13.5C15.9853 18 18 15.9853 18 13.5V4.5C18 2.01472 15.9853 0 13.5 0ZM9 6.625C7.68832 6.625 6.625 7.68832 6.625 9C6.625 10.3117 7.68832 11.375 9 11.375C10.3117 11.375 11.375 10.3117 11.375 9C11.375 7.68832 10.3117 6.625 9 6.625ZM4.625 9C4.625 6.58375 6.58375 4.625 9 4.625C11.4162 4.625 13.375 6.58375 13.375 9C13.375 11.4162 11.4162 13.375 9 13.375C6.58375 13.375 4.625 11.4162 4.625 9ZM14.8125 3.9375C14.8125 3.52329 14.4767 3.1875 14.0625 3.1875C13.6483 3.1875 13.3125 3.52329 13.3125 3.9375V3.9385C13.3125 4.35271 13.6483 4.6885 14.0625 4.6885C14.4767 4.6885 14.8125 4.35271 14.8125 3.9385V3.9375Z" fill="#161E29"/>
</svg>
