<svg width="1218" height="1065" viewBox="0 0 1218 1065" fill="none" xmlns="http://www.w3.org/2000/svg">
<path d="M1105.82 -54.696C1154.71 -16.5056 1187.68 42.1298 1204.43 106.249C1221.18 170.368 1221.7 239.928 1205.74 299.925C1188.73 363.876 1138.06 406.725 1083.07 447.93C1076.67 452.728 1070.2 457.505 1063.73 462.289C1014.67 498.553 964.95 535.301 935.118 585.905C910.129 628.294 906.268 678.824 902.434 729.006C902.277 731.058 902.121 733.11 901.963 735.16C897.933 787.405 892.997 838.899 863.514 880.415C803.718 964.618 708.048 1026.65 607.029 1048.13C557.483 1058.67 508.67 1045.61 459.462 1030.16C454.329 1028.55 449.193 1026.91 444.051 1025.27C399.931 1011.2 355.409 997.008 309.831 998.069C261.305 999.199 214.601 1015.39 168.259 1031.46C163.131 1033.24 158.008 1035.01 152.887 1036.77C101.449 1054.39 50.2461 1069.79 -2.91626 1062.33C-115.555 1046.55 -220.231 987.708 -305.14 911.943C-393.99 832.663 -488.395 736.389 -500.739 618.19C-507.039 557.861 -482.655 503.122 -452.618 448.728C-446.39 437.45 -439.918 426.186 -433.428 414.89C-408.641 371.749 -383.592 328.153 -370.874 281.593C-363.978 256.348 -362.034 229.409 -361.898 202.009C-361.82 186.124 -362.35 170.049 -362.878 154.056C-363.26 142.49 -363.64 130.967 -363.788 119.59C-364.492 65.2881 -359.903 14.0396 -325.154 -24.6519C-288.588 -65.3677 -235.251 -76.3406 -178.6 -83.1904C-169.31 -84.3137 -159.93 -85.326 -150.522 -86.3413C-102.626 -91.5102 -54.0009 -96.7578 -12.7567 -117.136C26.4947 -136.53 57.774 -167.694 88.8965 -198.702C90.4637 -200.263 92.0306 -201.824 93.598 -203.383C126.316 -235.928 159.3 -267.642 201.686 -284.922C292.396 -321.901 397.949 -356.091 489.555 -322.055C535.94 -304.822 562.709 -260.386 589.332 -215.12C589.808 -214.31 590.285 -213.5 590.761 -212.69C616.864 -168.289 643.162 -123.556 688.106 -104.057C747.36 -78.3483 816.112 -83.8543 883.847 -89.279C890.622 -89.8217 897.387 -90.3634 904.131 -90.8731C978.381 -96.484 1050.12 -98.2055 1105.82 -54.696Z" fill="#DD2D50" stroke="black"/>
</svg>
