<svg width="1007" height="806" viewBox="0 0 1007 806" fill="none" xmlns="http://www.w3.org/2000/svg">
<path d="M895.13 -200.09C993.128 -123.54 1027.19 34.8807 995.227 155.053C961.104 283.328 791.957 326.814 724.549 441.159C672.668 529.164 712.072 652.411 652.921 735.705C593.052 820.012 497.272 882.109 396.133 903.623C296.755 924.763 200.417 851.204 98.8429 853.569C-8.75749 856.075 -107.398 932.771 -213.986 917.83C-326.749 902.023 -431.512 843.126 -516.473 767.316C-605.308 688.049 -699.869 591.657 -712.236 473.242C-724.872 352.252 -614.412 253.81 -582.356 136.461C-554.839 35.726 -606.302 -92.293 -536.527 -169.986C-463.121 -251.721 -322.471 -213.92 -223.978 -262.585C-141.699 -303.238 -94.4871 -395.739 -9.50265 -430.385C81.1919 -467.358 186.919 -501.635 278.729 -467.524C371.889 -432.911 386.134 -289.071 477.305 -249.515C607.385 -193.078 783.386 -287.378 895.13 -200.09Z" fill="#DD2D50" fill-opacity="0.05"/>
</svg>
